<svg xmlns="http://www.w3.org/2000/svg" id="Ebene_1" width="212" height="44" viewBox="0 0 212 44"><defs><style>      .st0 {        fill: #5c000f;      }    </style></defs><path class="st0" d="M54,6.4h-2.3v14h2.3V6.4Z"></path><path class="st0" d="M96.5,6.4h-2.3v14h2.3V6.4Z"></path><path class="st0" d="M60.6,15.6h6.8c3.5,0,5.5-1.8,5.5-4.7s-2-4.5-5.2-4.5h-9.4v14h2.3s0-4.8,0-4.8ZM60.6,8.2h6.4c2.2,0,3.4,1.2,3.4,2.7s-1.3,2.8-3.4,2.8h-6.4v-5.5Z"></path><path class="st0" d="M75.2,20.4l1.7-3.5h10.2l1.7,3.5h2.6l-6.8-14h-5.1l-6.8,14h2.6,0ZM81.4,7c.2-.4.9-.4,1.1,0l3.5,8h-8.2l3.5-8h0Z"></path><path class="st0" d="M51.8,37.7h2.3v-6.1h10.3v-1.9h-10.3v-3.9h10.7v-1.9h-12.9v13.8h-.1Z"></path><path class="st0" d="M174.2,23.9h-2.3v13.8h2.3v-13.8Z"></path><path class="st0" d="M148,23.9h-2.5l-6.6,13.8h2.5l1.6-3.4h10l1.6,3.4h2.5l-6.6-13.8s-2.5,0-2.5,0ZM144,32.3l3.5-7.8c.2-.4.9-.4,1.1,0l3.5,7.8h-8.1Z"></path><path class="st0" d="M75.4,23.5c-5.3,0-8.9,3-8.9,7.4s3.6,7.4,8.9,7.4,8.9-3,8.9-7.4-3.6-7.4-8.9-7.4ZM75.4,36.2c-3.9,0-6.6-2.2-6.6-5.4s2.6-5.4,6.6-5.4,6.6,2.2,6.6,5.4-2.6,5.4-6.6,5.4Z"></path><path class="st0" d="M117.6,33.8v1.1c-.2-.3-.4-.5-.7-.9l-9.6-10.1h-2.6v13.8h2.1v-11.3c.2.3.4.6.7.9l9.9,10.4h2.3v-13.8h-2.1v9.9h0Z"></path><path class="st0" d="M99.5,31.3c0,2.9-2.2,4.9-5.4,4.9s-5.4-2-5.4-4.9v-7.4h-2.3v7.4c0,4.1,3,6.8,7.7,6.8s7.6-2.7,7.6-6.8v-7.4h-2.3v7.4h.1Z"></path><path class="st0" d="M130.4,23.9h-7.7v13.8h7.8c4.9,0,8.2-2.9,8.2-7.1s-3.1-6.7-8.3-6.7ZM130.5,35.8h-5.6v-10h5.3c2.3,0,6.1.6,6.1,4.8s-2.1,5.2-5.8,5.2Z"></path><path class="st0" d="M154.7,25.9h6.3v11.8h2.3v-11.8h6.3v-1.9h-14.9v1.9h0Z"></path><path class="st0" d="M185.4,23.5c-5.3,0-8.9,3-8.9,7.4s3.6,7.4,8.9,7.4,8.9-3,8.9-7.4-3.6-7.4-8.9-7.4ZM185.4,36.2c-3.9,0-6.6-2.2-6.6-5.4s2.6-5.4,6.6-5.4,6.6,2.2,6.6,5.4-2.6,5.4-6.6,5.4Z"></path><path class="st0" d="M209.7,23.9v11c-.2-.3-.4-.5-.7-.9l-9.6-10.1h-2.6v13.8h2.1v-11.3c.2.3.4.6.7.9l9.9,10.4h2.3v-13.8h-2.1,0Z"></path><path class="st0" d="M21.1.6C9.5.6.1,10.2.1,21.9s9.2,21,20.6,21.2c-8.8-.2-15.8-7.5-15.8-16.4S12.2,10.2,21.1,10.2s16.2,7.4,16.2,16.5-7,16.2-15.8,16.4c11.4-.2,20.6-9.7,20.6-21.2S32.7.6,21.1.6h0Z"></path><path class="st0" d="M21.5,43.1c6-.2,10.8-5.2,10.8-11.3s-5-11.3-11.2-11.3-11.2,5.1-11.2,11.3,4.8,11.1,10.8,11.3c-3.4-.2-6.2-3.1-6.2-6.6s2.9-6.6,6.5-6.6,6.5,2.9,6.5,6.6-2.7,6.4-6.2,6.6h.2Z"></path></svg>
